<svg width="221" height="127" viewBox="0 0 221 127" fill="none" xmlns="http://www.w3.org/2000/svg">
<path d="M136.031 27.0664C136.031 27.6305 135.842 28.1815 135.483 28.7138C133.734 33.8802 130.012 43.2317 125.369 49.4227C120.725 55.6137 95.4456 54.9258 91.3183 49.4227C87.191 43.9196 83.0688 33.6536 81.4758 28.6029C81.1634 28.105 81 27.5914 81 27.0664C81 22.5075 93.3191 18.8118 108.515 18.8118C123.712 18.8118 136.031 22.5075 136.031 27.0664Z" fill="#394A6D"/>
<path d="M128.749 28.8118C128.749 32.4209 119.741 35.3467 108.628 35.3467C97.516 35.3467 88.5076 32.4209 88.5076 28.8118C88.5076 25.2026 97.516 22.2769 108.628 22.2769C119.741 22.2769 128.749 25.2026 128.749 28.8118Z" fill="white"/>
<path d="M125.789 2.31175C128.078 0.811746 131.463 4.4357 129.982 7.62374C128.5 10.8118 110.855 30.3118 117.5 30.3117C124.145 30.3117 104.935 32.6312 108.435 31.1312C111.935 29.6312 123.5 3.81175 125.789 2.31175Z" fill="#394A6D"/>
<path d="M9.84375 95H3.11719V61.3906H26.6484V68.1172H9.84375V74.8438H19.9219V81.5703H9.84375V95ZM50.7422 82.2266C50.7422 84.1016 50.4062 85.8516 49.7344 87.4766C49.0625 89.0859 48.1484 90.4844 46.9922 91.6719C45.8359 92.8438 44.4766 93.7734 42.9141 94.4609C41.3672 95.1328 39.7031 95.4688 37.9219 95.4688C36.1562 95.4688 34.4922 95.1328 32.9297 94.4609C31.3828 93.7734 30.0234 92.8438 28.8516 91.6719C27.6953 90.4844 26.7812 89.0859 26.1094 87.4766C25.4375 85.8516 25.1016 84.1016 25.1016 82.2266C25.1016 80.3203 25.4375 78.5547 26.1094 76.9297C26.7812 75.3047 27.6953 73.9062 28.8516 72.7344C30.0234 71.5469 31.3828 70.6172 32.9297 69.9453C34.4922 69.2734 36.1562 68.9375 37.9219 68.9375C39.7031 68.9375 41.3672 69.2578 42.9141 69.8984C44.4766 70.5234 45.8359 71.4219 46.9922 72.5938C48.1484 73.75 49.0625 75.1484 49.7344 76.7891C50.4062 78.4141 50.7422 80.2266 50.7422 82.2266ZM44.2969 82.2266C44.2969 81.1953 44.125 80.2656 43.7812 79.4375C43.4531 78.5938 43 77.875 42.4219 77.2812C41.8438 76.6719 41.1641 76.2109 40.3828 75.8984C39.6172 75.5703 38.7969 75.4062 37.9219 75.4062C37.0469 75.4062 36.2188 75.5703 35.4375 75.8984C34.6719 76.2109 34 76.6719 33.4219 77.2812C32.8594 77.875 32.4141 78.5938 32.0859 79.4375C31.7578 80.2656 31.5938 81.1953 31.5938 82.2266C31.5938 83.1953 31.7578 84.0938 32.0859 84.9219C32.4141 85.75 32.8594 86.4688 33.4219 87.0781C34 87.6875 34.6719 88.1719 35.4375 88.5312C36.2188 88.875 37.0469 89.0469 37.9219 89.0469C38.7969 89.0469 39.6172 88.8828 40.3828 88.5547C41.1641 88.2266 41.8438 87.7656 42.4219 87.1719C43 86.5781 43.4531 85.8594 43.7812 85.0156C44.125 84.1719 44.2969 83.2422 44.2969 82.2266ZM78.5391 82.2266C78.5391 84.1016 78.2031 85.8516 77.5312 87.4766C76.8594 89.0859 75.9453 90.4844 74.7891 91.6719C73.6328 92.8438 72.2734 93.7734 70.7109 94.4609C69.1641 95.1328 67.5 95.4688 65.7188 95.4688C63.9531 95.4688 62.2891 95.1328 60.7266 94.4609C59.1797 93.7734 57.8203 92.8438 56.6484 91.6719C55.4922 90.4844 54.5781 89.0859 53.9062 87.4766C53.2344 85.8516 52.8984 84.1016 52.8984 82.2266C52.8984 80.3203 53.2344 78.5547 53.9062 76.9297C54.5781 75.3047 55.4922 73.9062 56.6484 72.7344C57.8203 71.5469 59.1797 70.6172 60.7266 69.9453C62.2891 69.2734 63.9531 68.9375 65.7188 68.9375C67.5 68.9375 69.1641 69.2578 70.7109 69.8984C72.2734 70.5234 73.6328 71.4219 74.7891 72.5938C75.9453 73.75 76.8594 75.1484 77.5312 76.7891C78.2031 78.4141 78.5391 80.2266 78.5391 82.2266ZM72.0938 82.2266C72.0938 81.1953 71.9219 80.2656 71.5781 79.4375C71.25 78.5938 70.7969 77.875 70.2188 77.2812C69.6406 76.6719 68.9609 76.2109 68.1797 75.8984C67.4141 75.5703 66.5938 75.4062 65.7188 75.4062C64.8438 75.4062 64.0156 75.5703 63.2344 75.8984C62.4688 76.2109 61.7969 76.6719 61.2188 77.2812C60.6562 77.875 60.2109 78.5938 59.8828 79.4375C59.5547 80.2656 59.3906 81.1953 59.3906 82.2266C59.3906 83.1953 59.5547 84.0938 59.8828 84.9219C60.2109 85.75 60.6562 86.4688 61.2188 87.0781C61.7969 87.6875 62.4688 88.1719 63.2344 88.5312C64.0156 88.875 64.8438 89.0469 65.7188 89.0469C66.5938 89.0469 67.4141 88.8828 68.1797 88.5547C68.9609 88.2266 69.6406 87.7656 70.2188 87.1719C70.7969 86.5781 71.25 85.8594 71.5781 85.0156C71.9219 84.1719 72.0938 83.2422 72.0938 82.2266ZM106.336 95H104.789L102.305 91.5547C101.695 92.1016 101.047 92.6172 100.359 93.1016C99.6875 93.5703 98.9766 93.9844 98.2266 94.3438C97.4766 94.6875 96.7031 94.9609 95.9062 95.1641C95.125 95.3672 94.3281 95.4688 93.5156 95.4688C91.75 95.4688 90.0859 95.1406 88.5234 94.4844C86.9766 93.8125 85.6172 92.8906 84.4453 91.7188C83.2891 90.5312 82.375 89.1328 81.7031 87.5234C81.0312 85.8984 80.6953 84.1328 80.6953 82.2266C80.6953 80.3359 81.0312 78.5781 81.7031 76.9531C82.375 75.3281 83.2891 73.9219 84.4453 72.7344C85.6172 71.5469 86.9766 70.6172 88.5234 69.9453C90.0859 69.2734 91.75 68.9375 93.5156 68.9375C94.0781 68.9375 94.6562 68.9844 95.25 69.0781C95.8594 69.1719 96.4453 69.3281 97.0078 69.5469C97.5859 69.75 98.125 70.0234 98.625 70.3672C99.125 70.7109 99.5469 71.1328 99.8906 71.6328V59.9141H106.336V95ZM99.8906 82.2266C99.8906 81.3516 99.7188 80.5078 99.375 79.6953C99.0469 78.8672 98.5938 78.1406 98.0156 77.5156C97.4375 76.875 96.7578 76.3672 95.9766 75.9922C95.2109 75.6016 94.3906 75.4062 93.5156 75.4062C92.6406 75.4062 91.8125 75.5625 91.0312 75.875C90.2656 76.1875 89.5938 76.6406 89.0156 77.2344C88.4531 77.8125 88.0078 78.5234 87.6797 79.3672C87.3516 80.2109 87.1875 81.1641 87.1875 82.2266C87.1875 83.1484 87.3516 84.0234 87.6797 84.8516C88.0078 85.6797 88.4531 86.4062 89.0156 87.0312C89.5938 87.6562 90.2656 88.1484 91.0312 88.5078C91.8125 88.8672 92.6406 89.0469 93.5156 89.0469C94.3906 89.0469 95.2109 88.8594 95.9766 88.4844C96.7578 88.0938 97.4375 87.5859 98.0156 86.9609C98.5938 86.3203 99.0469 85.5938 99.375 84.7812C99.7188 83.9531 99.8906 83.1016 99.8906 82.2266Z" fill="#52DE97"/>
<path d="M138.844 78.1953C138.844 79.7422 138.641 81.2344 138.234 82.6719C137.844 84.0938 137.281 85.4297 136.547 86.6797C135.812 87.9141 134.938 89.0469 133.922 90.0781C132.906 91.0938 131.773 91.9688 130.523 92.7031C129.273 93.4375 127.93 94.0078 126.492 94.4141C125.07 94.8047 123.586 95 122.039 95H111.914V61.3906H122.039C123.586 61.3906 125.07 61.5938 126.492 62C127.93 62.3906 129.273 62.9531 130.523 63.6875C131.773 64.4219 132.906 65.3047 133.922 66.3359C134.938 67.3516 135.812 68.4844 136.547 69.7344C137.281 70.9688 137.844 72.3047 138.234 73.7422C138.641 75.1641 138.844 76.6484 138.844 78.1953ZM132.117 78.1953C132.117 76.8047 131.852 75.5 131.32 74.2812C130.805 73.0625 130.086 72 129.164 71.0938C128.258 70.1719 127.188 69.4453 125.953 68.9141C124.734 68.3828 123.43 68.1172 122.039 68.1172H118.688V88.2734H122.039C123.43 88.2734 124.734 88.0156 125.953 87.5C127.188 86.9688 128.258 86.25 129.164 85.3438C130.086 84.4219 130.805 83.3516 131.32 82.1328C131.852 80.8984 132.117 79.5859 132.117 78.1953ZM161.086 92.0703C160.57 92.5391 160.016 92.9844 159.422 93.4062C158.844 93.8125 158.234 94.1719 157.594 94.4844C156.953 94.7812 156.289 95.0156 155.602 95.1875C154.93 95.375 154.242 95.4688 153.539 95.4688C151.992 95.4688 150.539 95.1953 149.18 94.6484C147.82 94.1016 146.625 93.3281 145.594 92.3281C144.578 91.3125 143.773 90.0859 143.18 88.6484C142.602 87.1953 142.312 85.5703 142.312 83.7734V69.8984H148.688V83.7734C148.688 84.6172 148.812 85.375 149.062 86.0469C149.328 86.7031 149.68 87.2578 150.117 87.7109C150.555 88.1641 151.062 88.5078 151.641 88.7422C152.234 88.9766 152.867 89.0938 153.539 89.0938C154.195 89.0938 154.812 88.9453 155.391 88.6484C155.984 88.3359 156.5 87.9297 156.938 87.4297C157.375 86.9297 157.719 86.3672 157.969 85.7422C158.219 85.1016 158.344 84.4453 158.344 83.7734V69.8984H164.742V95H163.195L161.086 92.0703ZM182.227 95C180.68 95 179.227 94.7109 177.867 94.1328C176.508 93.5391 175.312 92.7344 174.281 91.7188C173.266 90.6875 172.461 89.4922 171.867 88.1328C171.289 86.7734 171 85.3203 171 83.7734V76.3203H167.883V69.9453H171V59.9141H177.375V69.9453H187.078V76.3203H177.375V83.7734C177.375 84.4453 177.5 85.0781 177.75 85.6719C178 86.25 178.344 86.7578 178.781 87.1953C179.219 87.6328 179.734 87.9844 180.328 88.25C180.922 88.5 181.555 88.625 182.227 88.625H187.078V95H182.227ZM196.734 104.562V98.1172L200.297 98.1641C200.922 98.1641 201.523 98.0625 202.102 97.8594C202.68 97.6562 203.211 97.375 203.695 97.0156C204.195 96.6562 204.633 96.2266 205.008 95.7266C205.383 95.2422 205.688 94.7109 205.922 94.1328C205.219 94.4297 204.5 94.7266 203.766 95.0234C203.047 95.3203 202.32 95.4688 201.586 95.4688C200.039 95.4688 198.586 95.1953 197.227 94.6484C195.867 94.1016 194.672 93.3281 193.641 92.3281C192.625 91.3125 191.82 90.0859 191.227 88.6484C190.648 87.1953 190.359 85.5703 190.359 83.7734V69.8984H196.734V83.7734C196.734 84.6641 196.859 85.4453 197.109 86.1172C197.375 86.7734 197.727 87.3281 198.164 87.7812C198.602 88.2188 199.109 88.5469 199.688 88.7656C200.281 88.9844 200.914 89.0938 201.586 89.0938C202.242 89.0938 202.859 88.9453 203.438 88.6484C204.031 88.3359 204.547 87.9297 204.984 87.4297C205.422 86.9297 205.766 86.3672 206.016 85.7422C206.266 85.1016 206.391 84.4453 206.391 83.7734V69.8984H212.836V91.8359C212.82 93.6016 212.477 95.2578 211.805 96.8047C211.133 98.3516 210.211 99.7031 209.039 100.859C207.883 102.016 206.531 102.93 204.984 103.602C203.438 104.273 201.781 104.609 200.016 104.609L196.734 104.562Z" fill="#C0FFB3"/>
</svg>
